<?xml version="1.0" encoding="utf-8"?>
<!-- Generator: Adobe Illustrator 19.0.1, SVG Export Plug-In . SVG Version: 6.00 Build 0)  -->
<svg version="1.1" id="Layer_1" xmlns="http://www.w3.org/2000/svg" xmlns:xlink="http://www.w3.org/1999/xlink" x="0px" y="0px"
	 viewBox="0 0 1100 350" style="enable-background:new 0 0 1100 350;" xml:space="preserve">
<style type="text/css">
	.st0{fill:none;}
</style>
<g>
	<path d="M152.2,6.5l-28.3,128.8H95.8L77.8,45.8l-18.6,89.6H31.1L4.3,6.5h24.6l17.5,98.1L66.5,6.5h22.4l20.4,98.1l18.1-98.1H152.2z"
		/>
	<path d="M189.4,138c-28.5,0-47.4-20.8-47.4-48.7c0-27.9,19.3-48,46.5-48c25.4,0,47.1,17.7,47.2,48C235.7,117.8,216.9,138,189.4,138
		z M188.3,61.1c-13.7,0-23.5,10.9-23.5,27.7c0,18.8,11.5,29.2,24.6,29.2c15.9,0,23.9-13.9,23.3-29C212.4,73.8,203.6,61.1,188.3,61.1
		z"/>
	<path d="M263.8,44.1v12.9c2.7-4.7,8.8-15.5,29.2-15v22.4c-4.7,0.2-12.9,0.4-19.7,5.5c-9.3,7.1-9.5,16.4-9.5,31.6v33.7h-21.2V44.1
		H263.8z"/>
	<path d="M321.6,6.5v72.4l35.6-34.8h27.9l-34.8,34.8l38.3,56.4h-26.6l-27.5-40.9L321.6,107v28.3h-21.7V6.5H321.6z"/>
</g>
<g>
	<path d="M497.8,3.5v128.8h-21.7v-8.8c-6.7,8.2-15.9,11.5-25.4,11.5c-21.7,0-40.5-16.2-40.5-46.3c0-27.2,15.3-50.3,41.4-50.3
		c8.9,0,17.5,2.6,24.4,10.2v-45H497.8z M471,67c-3.3-4.9-8.8-8.4-16-8.4c-14.8,0-21.9,13.3-21.9,27.7c0,1.6,0.2,29,21.5,29
		c11.3,0,21.5-8.4,21.3-28.1C475.7,81.4,475,73,471,67z"/>
	<path d="M551.2,135c-28.5,0-47.4-20.8-47.4-48.7c0-27.9,19.3-48,46.5-48c25.4,0,47.1,17.7,47.2,48C597.5,114.8,578.8,135,551.2,135
		z M550.1,58.1c-13.7,0-23.5,10.9-23.5,27.7c0,18.8,11.5,29.2,24.6,29.2c15.9,0,23.9-13.9,23.3-29C574.2,70.8,565.4,58.1,550.1,58.1
		z"/>
	<path d="M694,111.9C682.7,127,668.1,135,649.5,135c-23.9,0-46.9-15.1-46.9-48.7c0-30.6,19.7-48,45.4-48c24.1,0,34.1,14.4,35.9,17.1
		c7.5,10.6,9.1,26.4,9.3,35.6h-67.5c2.6,14.4,11.5,22.6,25.9,22.6c15,0,21-8.8,23.7-12.6L694,111.9z M669.2,75
		c-2-14.2-10.8-19.2-20.4-19.2c-11.7,0-19.7,6.7-22.3,19.2H669.2z"/>
	<path d="M711.9,105.3c5.5,6.7,13.7,11.7,26.3,11.7c12.6,0,18.1-6.2,18.1-10.8c0-5.8-6.6-7.3-9.5-7.8c-3.1-0.7-18.1-3.5-21.3-4.4
		c-21.7-5.1-25.7-17.7-25.7-25.9c0-15.5,14-29.7,39-29.7c13.9,0,23.9,4.4,30.1,8.8c4.6,2.9,7.5,6,9.3,8.2l-15.5,14.4
		c-2.6-4.9-8.8-13.9-24.8-13.9c-10.4,0-15.1,4.6-15.1,9.3c0,6.6,6.7,8.4,18.4,10.4c19,3.5,24.3,4.4,30.1,8.9
		c5.7,4.4,9.3,11.7,9.3,19.3c0,14.2-12.8,31.2-41,31.2c-16.2,0-32.3-5.1-43.8-16.2L711.9,105.3z"/>
	<path d="M787.2,41.1h22.1v10.8c1.1-1.6,3.3-4.6,7.1-7.1c5.5-4,13.9-6.4,21-6.4c10.4,0,19.3,4.7,23.9,10.9
		c5.7,7.7,5.7,17.5,5.7,29.4v53.6h-21.7V85.8c0-6.7,0-11.3-0.7-13.9c-2-8-7.8-12.2-15-12.2s-13.7,4.2-16.8,10.2
		c-3.5,6.7-3.5,16.1-3.5,22.8v39.6h-22.1V41.1z"/>
	<path d="M901.9,3.5v22.6c0,10.2,0,14.2-3.8,19c-5.8,7.3-14,8.2-18.6,8.6V44c9.8-2.9,9.8-8,9.8-15.1h-11.1V3.5H901.9z"/>
	<path d="M944.8,56.8V98c0,11.3,0,16.2,10.4,16.2c3.3,0,6-0.2,9.1-1.1v18.4c-6.6,1.1-10.9,1.5-15.9,1.5c-4.6,0-19.9,0-24.1-11.1
		c-1.5-3.6-1.5-9.5-1.5-18.6V56.8h-13.3V41.1h13.3V8.8h21.9v32.3h19.5v15.7H944.8z"/>
</g>
<g>
	<path d="M57.7,156.8v128.8H35.7V156.8H57.7z"/>
	<path d="M112.3,288.3c-28.5,0-47.4-20.8-47.4-48.7c0-27.9,19.3-48,46.5-48c25.4,0,47.1,17.7,47.2,48
		C158.6,268.1,139.8,288.3,112.3,288.3z M111.2,211.4c-13.7,0-23.5,10.9-23.5,27.7c0,18.8,11.5,29.2,24.6,29.2
		c15.9,0,23.9-13.9,23.3-29C135.3,224.1,126.5,211.4,111.2,211.4z"/>
	<path d="M235.6,194.4l-29.9,91.2h-23.5l-29.5-91.2h22.6l19,62.7l18.6-62.7H235.6z"/>
	<path d="M324.2,265.2c-11.3,15.1-25.9,23.2-44.5,23.2c-23.9,0-46.9-15.1-46.9-48.7c0-30.6,19.7-48,45.4-48
		c24.1,0,34.1,14.4,35.9,17.1c7.5,10.6,9.1,26.4,9.3,35.6H256c2.6,14.4,11.5,22.6,25.9,22.6c15,0,21-8.8,23.7-12.6L324.2,265.2z
		 M299.4,228.3c-2-14.2-10.8-19.2-20.4-19.2c-11.7,0-19.7,6.7-22.3,19.2H299.4z"/>
</g>
<g>
	<path d="M679.6,156.8V202c7.3-6.7,16.4-10.4,26.4-10.4c20.6,0,39.9,19,39.9,48c0,29.7-19.7,48.7-41.4,48.7c-12,0-20.2-6.7-25-12.2
		v9.5h-21.7V156.8H679.6z M700.8,211.5c-9.8,0-21.5,7.5-21.5,27c0,5.7,0.7,9.5,1.5,11.7c4.4,17.3,19.2,17.3,21,17.3
		c16,0,21.3-16.2,21.7-28.3C723.9,221.2,712.6,211.5,700.8,211.5z"/>
	<path d="M754.2,221.2c0.4-4.6,0.7-8.4,3.6-13.7c8.8-15.9,30.5-15.9,36.3-15.9c8.8,0,19.3,1.1,27.4,5.8c10.8,6.6,10.9,15.1,10.9,25
		v48.3c0,6.9,0,9.3,4,14.8h-25.9c-0.2-2.2-0.5-5.8-0.5-7.1c-4.7,4-14.4,9.3-27,9.3c-20.6,0-33-12.8-33-28.5c0-4.6,1.1-8.8,2.9-12.4
		c6.6-13.1,20.6-16.1,29.4-17.7c18.8-3.8,20.2-4.2,28.3-6.7c0-4.6-0.4-13.9-15.5-13.9c-9.1,0-14,2.9-16.2,5.8
		c-2.4,2.9-2.2,5.5-2.2,8L754.2,221.2z M810.5,240.2c-4.4,2.2-9.3,3.8-19.2,5.5c-7.8,1.1-18.2,2.9-18.2,12.6c0,7.1,6,10.8,14.8,10.8
		c11.1,0,19-5.1,21.3-10.6c1.3-2.7,1.3-5.5,1.3-8.2V240.2z"/>
	<path d="M903.4,226.7c-1.6-6-8-15.5-20.6-15.5c-12.6,0-22.6,10-22.6,28.3c0,16.4,8.6,28.5,23,28.5c13.9,0,19.2-10.6,21.9-17.9
		l18.8,9.8c-7.1,19.7-25.2,28.5-41,28.5c-25.4,0-45.2-19.5-45.2-48.3c0-27.9,20.1-48.3,46-48.3c23,0,34.7,15.3,39.4,25.9
		L903.4,226.7z"/>
	<path d="M950.4,156.8v72.4l35.6-34.8h27.9l-34.8,34.8l38.3,56.4h-26.6l-27.5-40.9l-12.8,12.6v28.3h-21.7V156.8H950.4z"/>
	<path d="M1046.7,260.6v25h-24.1v-25H1046.7z"/>
</g>
<rect x="3.3" y="301.6" class="st0" width="960" height="261.9"/>
<g>
	<path d="M433.2,194.3l-23.8,78.3l-5.2,16.9c-6.4,18.9-13.3,25.5-30.7,25.5c-7.3,0-10.9-0.7-13.5-1.1v-18.9c2.1,0.4,3.7,0.5,6,0.5
		c1.7,0,6.6,0,10.1-2.3c2.6-1.6,5.2-5.6,5.2-7.4l-33.9-91.6h24.2l20.8,67l17.8-67H433.2z"/>
	<path d="M478.9,286.9c-29.2,0-48.7-20.5-48.7-48s19.9-47.2,47.8-47.2c26.1,0,48.4,17.4,48.5,47.2
		C526.5,266.9,507.2,286.9,478.9,286.9z M477.8,211.1c-14.1,0-24.2,10.8-24.2,27.3c0,18.5,11.8,28.7,25.3,28.7
		c16.3,0,24.6-13.7,24-28.6C502.5,223.6,493.5,211.1,477.8,211.1z"/>
	<path d="M619.3,194.3v89.8h-22.5V275c-3.9,3.6-13.1,11.3-30.4,11.3c-15.4,0-22.7-6.3-26.1-10.4c-6.4-7.7-6.4-16.2-6.4-29.6v-51.9
		h22.7v51.6c0,3.6,0,6.6,0.7,9c2.4,7.9,9.2,11.3,17.4,11.3c9.4,0,15.2-4.8,18.2-9.5c3.4-5.9,3.6-11.7,3.7-24.2v-38.1H619.3z"/>
</g>
</svg>
